<svg width="20" height="24" viewBox="0 0 20 24" fill="none" xmlns="http://www.w3.org/2000/svg">
<path fill-rule="evenodd" clip-rule="evenodd" d="M12.5 5H7.5V6.25C7.5 6.58152 7.3683 6.89946 7.13388 7.13388C6.89946 7.3683 6.58152 7.5 6.25 7.5C5.91848 7.5 5.60054 7.3683 5.36612 7.13388C5.1317 6.89946 5 6.58152 5 6.25V5H3.75C3.41848 5 3.10054 5.1317 2.86612 5.36612C2.6317 5.60054 2.5 5.91848 2.5 6.25V8.75H17.5V6.25C17.5 5.91848 17.3683 5.60054 17.1339 5.36612C16.8995 5.1317 16.5815 5 16.25 5H15V6.25C15 6.58152 14.8683 6.89946 14.6339 7.13388C14.3995 7.3683 14.0815 7.5 13.75 7.5C13.4185 7.5 13.1005 7.3683 12.8661 7.13388C12.6317 6.89946 12.5 6.58152 12.5 6.25V5ZM15 2.5H16.25C17.2446 2.5 18.1984 2.89509 18.9017 3.59835C19.6049 4.30161 20 5.25544 20 6.25V16.25C20 17.2446 19.6049 18.1984 18.9017 18.9017C18.1984 19.6049 17.2446 20 16.25 20H3.75C2.75544 20 1.80161 19.6049 1.09835 18.9017C0.395088 18.1984 0 17.2446 0 16.25L0 6.25C0 5.25544 0.395088 4.30161 1.09835 3.59835C1.80161 2.89509 2.75544 2.5 3.75 2.5H5V1.25C5 0.918479 5.1317 0.600537 5.36612 0.366117C5.60054 0.131696 5.91848 0 6.25 0C6.58152 0 6.89946 0.131696 7.13388 0.366117C7.3683 0.600537 7.5 0.918479 7.5 1.25V2.5H12.5V1.25C12.5 0.918479 12.6317 0.600537 12.8661 0.366117C13.1005 0.131696 13.4185 0 13.75 0C14.0815 0 14.3995 0.131696 14.6339 0.366117C14.8683 0.600537 15 0.918479 15 1.25V2.5ZM2.5 11.25V16.25C2.5 16.5815 2.6317 16.8995 2.86612 17.1339C3.10054 17.3683 3.41848 17.5 3.75 17.5H16.25C16.5815 17.5 16.8995 17.3683 17.1339 17.1339C17.3683 16.8995 17.5 16.5815 17.5 16.25V11.25H2.5Z" fill="#606060"/>
</svg>
