<svg width="29" height="28" viewBox="0 0 29 28" fill="none" xmlns="http://www.w3.org/2000/svg">
<path d="M10.5625 1.64062V6.5625H8.59375V4.59375H2.6875V22.3125H4.65625V23.2969C4.65625 24.0967 4.94336 24.7837 5.51758 25.3579C6.1123 25.9526 6.80957 26.25 7.60938 26.25C8.40918 26.25 9.09619 25.9526 9.67041 25.3579C10.2651 24.7837 10.5625 24.0967 10.5625 23.2969V22.3125H26.3125V6.5625H22.375V1.64062H10.5625ZM12.5312 3.60938H20.4062V8.53125H12.5312V3.60938ZM4.65625 6.5625H6.625V20.3438H4.65625V6.5625ZM8.59375 8.53125H10.5625V10.5H22.375V8.53125H24.3438V20.3438H8.59375V8.53125ZM11.5469 12.4688V14.4375H13.5156V12.4688H11.5469ZM15.4844 12.4688V14.4375H17.4531V12.4688H15.4844ZM19.4219 12.4688V14.4375H21.3906V12.4688H19.4219ZM11.5469 16.4062V18.375H13.5156V16.4062H11.5469ZM15.4844 16.4062V18.375H17.4531V16.4062H15.4844ZM19.4219 16.4062V18.375H21.3906V16.4062H19.4219ZM6.625 22.3125H8.59375V23.2969C8.59375 23.5635 8.49121 23.7993 8.28613 24.0044C8.10156 24.189 7.87598 24.2812 7.60938 24.2812C7.34277 24.2812 7.10693 24.189 6.90186 24.0044C6.71729 23.7993 6.625 23.5635 6.625 23.2969V22.3125Z" fill="black"/>
</svg>
