<svg width="145" height="329" viewBox="0 0 145 329" fill="none" xmlns="http://www.w3.org/2000/svg">
<ellipse cx="6.5" cy="6.75472" rx="6.5" ry="6.33002" fill="#000033" fill-opacity="0.15"/>
<ellipse cx="6.5" cy="41.8133" rx="6.5" ry="6.33002" fill="#000033" fill-opacity="0.15"/>
<ellipse cx="6.5" cy="76.8719" rx="6.5" ry="6.33002" fill="#000033" fill-opacity="0.15"/>
<ellipse cx="6.5" cy="111.93" rx="6.5" ry="6.33002" fill="#000033" fill-opacity="0.15"/>
<ellipse cx="6.5" cy="146.989" rx="6.5" ry="6.33002" fill="#000033" fill-opacity="0.15"/>
<ellipse cx="6.5" cy="182.048" rx="6.5" ry="6.33002" fill="#000033" fill-opacity="0.15"/>
<ellipse cx="6.5" cy="217.106" rx="6.5" ry="6.33002" fill="#000033" fill-opacity="0.15"/>
<ellipse cx="6.5" cy="252.165" rx="6.5" ry="6.33002" fill="#000033" fill-opacity="0.15"/>
<ellipse cx="6.5" cy="287.223" rx="6.5" ry="6.33002" fill="#000033" fill-opacity="0.15"/>
<ellipse cx="6.5" cy="322.282" rx="6.5" ry="6.33002" fill="#000033" fill-opacity="0.15"/>
<ellipse cx="28.5" cy="6.75472" rx="6.5" ry="6.33002" fill="#000033" fill-opacity="0.15"/>
<ellipse cx="28.5" cy="41.8133" rx="6.5" ry="6.33002" fill="#000033" fill-opacity="0.15"/>
<ellipse cx="28.5" cy="76.8719" rx="6.5" ry="6.33002" fill="#000033" fill-opacity="0.15"/>
<ellipse cx="28.5" cy="111.93" rx="6.5" ry="6.33002" fill="#000033" fill-opacity="0.15"/>
<ellipse cx="28.5" cy="146.989" rx="6.5" ry="6.33002" fill="#000033" fill-opacity="0.15"/>
<ellipse cx="28.5" cy="182.048" rx="6.5" ry="6.33002" fill="#000033" fill-opacity="0.15"/>
<ellipse cx="28.5" cy="217.106" rx="6.5" ry="6.33002" fill="#000033" fill-opacity="0.15"/>
<ellipse cx="28.5" cy="252.165" rx="6.5" ry="6.33002" fill="#000033" fill-opacity="0.15"/>
<ellipse cx="28.5" cy="287.223" rx="6.5" ry="6.33002" fill="#000033" fill-opacity="0.15"/>
<ellipse cx="28.5" cy="322.282" rx="6.5" ry="6.33002" fill="#000033" fill-opacity="0.15"/>
<ellipse cx="50.5" cy="6.75472" rx="6.5" ry="6.33002" fill="#000033" fill-opacity="0.15"/>
<ellipse cx="50.5" cy="41.8133" rx="6.5" ry="6.33002" fill="#000033" fill-opacity="0.15"/>
<ellipse cx="50.5" cy="76.8719" rx="6.5" ry="6.33002" fill="#000033" fill-opacity="0.15"/>
<ellipse cx="50.5" cy="111.93" rx="6.5" ry="6.33002" fill="#000033" fill-opacity="0.15"/>
<ellipse cx="50.5" cy="146.989" rx="6.5" ry="6.33002" fill="#000033" fill-opacity="0.15"/>
<ellipse cx="50.5" cy="182.048" rx="6.5" ry="6.33002" fill="#000033" fill-opacity="0.15"/>
<ellipse cx="50.5" cy="217.106" rx="6.5" ry="6.33002" fill="#000033" fill-opacity="0.15"/>
<ellipse cx="50.5" cy="252.165" rx="6.5" ry="6.33002" fill="#000033" fill-opacity="0.15"/>
<ellipse cx="50.5" cy="287.223" rx="6.5" ry="6.33002" fill="#000033" fill-opacity="0.15"/>
<ellipse cx="50.5" cy="322.282" rx="6.5" ry="6.33002" fill="#000033" fill-opacity="0.15"/>
<ellipse cx="72.5" cy="6.75472" rx="6.5" ry="6.33002" fill="#000033" fill-opacity="0.15"/>
<ellipse cx="72.5" cy="41.8133" rx="6.5" ry="6.33002" fill="#000033" fill-opacity="0.15"/>
<ellipse cx="72.5" cy="76.8719" rx="6.5" ry="6.33002" fill="#000033" fill-opacity="0.15"/>
<ellipse cx="72.5" cy="111.93" rx="6.5" ry="6.33002" fill="#000033" fill-opacity="0.15"/>
<ellipse cx="72.5" cy="146.989" rx="6.5" ry="6.33002" fill="#000033" fill-opacity="0.15"/>
<ellipse cx="72.5" cy="182.048" rx="6.5" ry="6.33002" fill="#000033" fill-opacity="0.15"/>
<ellipse cx="72.5" cy="217.106" rx="6.5" ry="6.33002" fill="#000033" fill-opacity="0.15"/>
<ellipse cx="72.5" cy="252.165" rx="6.5" ry="6.33002" fill="#000033" fill-opacity="0.15"/>
<ellipse cx="72.5" cy="287.223" rx="6.5" ry="6.33002" fill="#000033" fill-opacity="0.15"/>
<ellipse cx="72.5" cy="322.282" rx="6.5" ry="6.33002" fill="#000033" fill-opacity="0.15"/>
<ellipse cx="94.5" cy="6.75472" rx="6.5" ry="6.33002" fill="#000033" fill-opacity="0.15"/>
<ellipse cx="94.5" cy="41.8133" rx="6.5" ry="6.33002" fill="#000033" fill-opacity="0.15"/>
<ellipse cx="94.5" cy="76.8719" rx="6.5" ry="6.33002" fill="#000033" fill-opacity="0.15"/>
<ellipse cx="94.5" cy="111.93" rx="6.5" ry="6.33002" fill="#000033" fill-opacity="0.15"/>
<ellipse cx="94.5" cy="146.989" rx="6.5" ry="6.33002" fill="#000033" fill-opacity="0.15"/>
<ellipse cx="94.5" cy="182.048" rx="6.5" ry="6.33002" fill="#000033" fill-opacity="0.15"/>
<ellipse cx="94.5" cy="217.106" rx="6.5" ry="6.33002" fill="#000033" fill-opacity="0.15"/>
<ellipse cx="94.5" cy="252.165" rx="6.5" ry="6.33002" fill="#000033" fill-opacity="0.15"/>
<ellipse cx="94.5" cy="287.223" rx="6.5" ry="6.33002" fill="#000033" fill-opacity="0.15"/>
<ellipse cx="94.5" cy="322.282" rx="6.5" ry="6.33002" fill="#000033" fill-opacity="0.15"/>
<ellipse cx="116.5" cy="6.75472" rx="6.5" ry="6.33002" fill="#000033" fill-opacity="0.15"/>
<ellipse cx="116.5" cy="41.8133" rx="6.5" ry="6.33002" fill="#000033" fill-opacity="0.15"/>
<ellipse cx="116.5" cy="76.8719" rx="6.5" ry="6.33002" fill="#000033" fill-opacity="0.15"/>
<ellipse cx="116.5" cy="111.93" rx="6.5" ry="6.33002" fill="#000033" fill-opacity="0.15"/>
<ellipse cx="116.5" cy="146.989" rx="6.5" ry="6.33002" fill="#000033" fill-opacity="0.15"/>
<ellipse cx="116.5" cy="182.048" rx="6.5" ry="6.33002" fill="#000033" fill-opacity="0.15"/>
<ellipse cx="116.5" cy="217.106" rx="6.5" ry="6.33002" fill="#000033" fill-opacity="0.15"/>
<ellipse cx="116.5" cy="252.165" rx="6.5" ry="6.33002" fill="#000033" fill-opacity="0.15"/>
<ellipse cx="116.5" cy="287.223" rx="6.5" ry="6.33002" fill="#000033" fill-opacity="0.15"/>
<ellipse cx="116.5" cy="322.282" rx="6.5" ry="6.33002" fill="#000033" fill-opacity="0.15"/>
<ellipse cx="138.5" cy="6.75472" rx="6.5" ry="6.33002" fill="#000033" fill-opacity="0.15"/>
<ellipse cx="138.5" cy="41.8133" rx="6.5" ry="6.33002" fill="#000033" fill-opacity="0.15"/>
<ellipse cx="138.5" cy="76.8719" rx="6.5" ry="6.33002" fill="#000033" fill-opacity="0.15"/>
<ellipse cx="138.5" cy="111.93" rx="6.5" ry="6.33002" fill="#000033" fill-opacity="0.15"/>
<ellipse cx="138.5" cy="146.989" rx="6.5" ry="6.33002" fill="#000033" fill-opacity="0.15"/>
<ellipse cx="138.5" cy="182.048" rx="6.5" ry="6.33002" fill="#000033" fill-opacity="0.15"/>
<ellipse cx="138.5" cy="217.106" rx="6.5" ry="6.33002" fill="#000033" fill-opacity="0.15"/>
<ellipse cx="138.5" cy="252.165" rx="6.5" ry="6.33002" fill="#000033" fill-opacity="0.15"/>
<ellipse cx="138.5" cy="287.223" rx="6.5" ry="6.33002" fill="#000033" fill-opacity="0.15"/>
<ellipse cx="138.5" cy="322.282" rx="6.5" ry="6.33002" fill="#000033" fill-opacity="0.15"/>
</svg>
