<svg width="100" height="225" viewBox="0 0 100 225" fill="none" xmlns="http://www.w3.org/2000/svg">
<g id="Group 10">
<g id="Group 1">
<ellipse id="Ellipse 2" cx="5.34958" cy="4.89563" rx="4.42526" ry="4.30954" fill="#000033" fill-opacity="0.15"/>
<ellipse id="Ellipse 3" cx="5.34958" cy="28.7638" rx="4.42526" ry="4.30954" fill="#000033" fill-opacity="0.15"/>
<ellipse id="Ellipse 4" cx="5.34958" cy="52.6319" rx="4.42526" ry="4.30954" fill="#000033" fill-opacity="0.15"/>
<ellipse id="Ellipse 5" cx="5.34958" cy="76.5002" rx="4.42526" ry="4.30954" fill="#000033" fill-opacity="0.15"/>
<ellipse id="Ellipse 6" cx="5.34958" cy="100.368" rx="4.42526" ry="4.30954" fill="#000033" fill-opacity="0.15"/>
<ellipse id="Ellipse 7" cx="5.34958" cy="124.237" rx="4.42526" ry="4.30954" fill="#000033" fill-opacity="0.15"/>
<ellipse id="Ellipse 8" cx="5.34958" cy="148.105" rx="4.42526" ry="4.30954" fill="#000033" fill-opacity="0.15"/>
<ellipse id="Ellipse 9" cx="5.34958" cy="171.973" rx="4.42526" ry="4.30954" fill="#000033" fill-opacity="0.15"/>
<ellipse id="Ellipse 10" cx="5.34958" cy="195.841" rx="4.42526" ry="4.30954" fill="#000033" fill-opacity="0.15"/>
<ellipse id="Ellipse 11" cx="5.34958" cy="219.709" rx="4.42526" ry="4.30954" fill="#000033" fill-opacity="0.15"/>
</g>
<g id="Group 2">
<ellipse id="Ellipse 2_2" cx="20.3271" cy="4.89559" rx="4.42526" ry="4.30954" fill="#000033" fill-opacity="0.15"/>
<ellipse id="Ellipse 3_2" cx="20.3271" cy="28.7638" rx="4.42526" ry="4.30954" fill="#000033" fill-opacity="0.15"/>
<ellipse id="Ellipse 4_2" cx="20.3271" cy="52.6319" rx="4.42526" ry="4.30954" fill="#000033" fill-opacity="0.15"/>
<ellipse id="Ellipse 5_2" cx="20.3271" cy="76.5001" rx="4.42526" ry="4.30954" fill="#000033" fill-opacity="0.15"/>
<ellipse id="Ellipse 6_2" cx="20.3271" cy="100.368" rx="4.42526" ry="4.30954" fill="#000033" fill-opacity="0.15"/>
<ellipse id="Ellipse 7_2" cx="20.3271" cy="124.237" rx="4.42526" ry="4.30954" fill="#000033" fill-opacity="0.15"/>
<ellipse id="Ellipse 8_2" cx="20.3271" cy="148.105" rx="4.42526" ry="4.30954" fill="#000033" fill-opacity="0.15"/>
<ellipse id="Ellipse 9_2" cx="20.3271" cy="171.973" rx="4.42526" ry="4.30954" fill="#000033" fill-opacity="0.15"/>
<ellipse id="Ellipse 10_2" cx="20.3271" cy="195.841" rx="4.42526" ry="4.30954" fill="#000033" fill-opacity="0.15"/>
<ellipse id="Ellipse 11_2" cx="20.3271" cy="219.709" rx="4.42526" ry="4.30954" fill="#000033" fill-opacity="0.15"/>
</g>
<g id="Group 3">
<ellipse id="Ellipse 2_3" cx="35.3054" cy="4.89559" rx="4.42526" ry="4.30954" fill="#000033" fill-opacity="0.15"/>
<ellipse id="Ellipse 3_3" cx="35.3054" cy="28.7638" rx="4.42526" ry="4.30954" fill="#000033" fill-opacity="0.15"/>
<ellipse id="Ellipse 4_3" cx="35.3054" cy="52.6319" rx="4.42526" ry="4.30954" fill="#000033" fill-opacity="0.15"/>
<ellipse id="Ellipse 5_3" cx="35.3054" cy="76.5001" rx="4.42526" ry="4.30954" fill="#000033" fill-opacity="0.15"/>
<ellipse id="Ellipse 6_3" cx="35.3054" cy="100.368" rx="4.42526" ry="4.30954" fill="#000033" fill-opacity="0.15"/>
<ellipse id="Ellipse 7_3" cx="35.3054" cy="124.237" rx="4.42526" ry="4.30954" fill="#000033" fill-opacity="0.15"/>
<ellipse id="Ellipse 8_3" cx="35.3054" cy="148.105" rx="4.42526" ry="4.30954" fill="#000033" fill-opacity="0.15"/>
<ellipse id="Ellipse 9_3" cx="35.3054" cy="171.973" rx="4.42526" ry="4.30954" fill="#000033" fill-opacity="0.15"/>
<ellipse id="Ellipse 10_3" cx="35.3054" cy="195.841" rx="4.42526" ry="4.30954" fill="#000033" fill-opacity="0.15"/>
<ellipse id="Ellipse 11_3" cx="35.3054" cy="219.709" rx="4.42526" ry="4.30954" fill="#000033" fill-opacity="0.15"/>
</g>
<g id="Group 4">
<ellipse id="Ellipse 2_4" cx="50.2832" cy="4.89559" rx="4.42526" ry="4.30954" fill="#000033" fill-opacity="0.15"/>
<ellipse id="Ellipse 3_4" cx="50.2832" cy="28.7638" rx="4.42526" ry="4.30954" fill="#000033" fill-opacity="0.15"/>
<ellipse id="Ellipse 4_4" cx="50.2832" cy="52.6319" rx="4.42526" ry="4.30954" fill="#000033" fill-opacity="0.15"/>
<ellipse id="Ellipse 5_4" cx="50.2832" cy="76.5001" rx="4.42526" ry="4.30954" fill="#000033" fill-opacity="0.15"/>
<ellipse id="Ellipse 6_4" cx="50.2832" cy="100.368" rx="4.42526" ry="4.30954" fill="#000033" fill-opacity="0.15"/>
<ellipse id="Ellipse 7_4" cx="50.2832" cy="124.237" rx="4.42526" ry="4.30954" fill="#000033" fill-opacity="0.15"/>
<ellipse id="Ellipse 8_4" cx="50.2832" cy="148.105" rx="4.42526" ry="4.30954" fill="#000033" fill-opacity="0.15"/>
<ellipse id="Ellipse 9_4" cx="50.2832" cy="171.973" rx="4.42526" ry="4.30954" fill="#000033" fill-opacity="0.15"/>
<ellipse id="Ellipse 10_4" cx="50.2832" cy="195.841" rx="4.42526" ry="4.30954" fill="#000033" fill-opacity="0.15"/>
<ellipse id="Ellipse 11_4" cx="50.2832" cy="219.709" rx="4.42526" ry="4.30954" fill="#000033" fill-opacity="0.15"/>
</g>
<g id="Group 5">
<ellipse id="Ellipse 2_5" cx="65.2607" cy="4.89559" rx="4.42526" ry="4.30954" fill="#000033" fill-opacity="0.15"/>
<ellipse id="Ellipse 3_5" cx="65.2607" cy="28.7638" rx="4.42526" ry="4.30954" fill="#000033" fill-opacity="0.15"/>
<ellipse id="Ellipse 4_5" cx="65.2607" cy="52.6319" rx="4.42526" ry="4.30954" fill="#000033" fill-opacity="0.15"/>
<ellipse id="Ellipse 5_5" cx="65.2607" cy="76.5001" rx="4.42526" ry="4.30954" fill="#000033" fill-opacity="0.15"/>
<ellipse id="Ellipse 6_5" cx="65.2607" cy="100.368" rx="4.42526" ry="4.30954" fill="#000033" fill-opacity="0.15"/>
<ellipse id="Ellipse 7_5" cx="65.2607" cy="124.237" rx="4.42526" ry="4.30954" fill="#000033" fill-opacity="0.15"/>
<ellipse id="Ellipse 8_5" cx="65.2607" cy="148.105" rx="4.42526" ry="4.30954" fill="#000033" fill-opacity="0.15"/>
<ellipse id="Ellipse 9_5" cx="65.2607" cy="171.973" rx="4.42526" ry="4.30954" fill="#000033" fill-opacity="0.15"/>
<ellipse id="Ellipse 10_5" cx="65.2607" cy="195.841" rx="4.42526" ry="4.30954" fill="#000033" fill-opacity="0.15"/>
<ellipse id="Ellipse 11_5" cx="65.2607" cy="219.709" rx="4.42526" ry="4.30954" fill="#000033" fill-opacity="0.15"/>
</g>
<g id="Group 6">
<ellipse id="Ellipse 2_6" cx="80.2385" cy="4.89559" rx="4.42526" ry="4.30954" fill="#000033" fill-opacity="0.15"/>
<ellipse id="Ellipse 3_6" cx="80.2385" cy="28.7638" rx="4.42526" ry="4.30954" fill="#000033" fill-opacity="0.15"/>
<ellipse id="Ellipse 4_6" cx="80.2385" cy="52.6319" rx="4.42526" ry="4.30954" fill="#000033" fill-opacity="0.15"/>
<ellipse id="Ellipse 5_6" cx="80.2385" cy="76.5001" rx="4.42526" ry="4.30954" fill="#000033" fill-opacity="0.15"/>
<ellipse id="Ellipse 6_6" cx="80.2385" cy="100.368" rx="4.42526" ry="4.30954" fill="#000033" fill-opacity="0.15"/>
<ellipse id="Ellipse 7_6" cx="80.2385" cy="124.237" rx="4.42526" ry="4.30954" fill="#000033" fill-opacity="0.15"/>
<ellipse id="Ellipse 8_6" cx="80.2385" cy="148.105" rx="4.42526" ry="4.30954" fill="#000033" fill-opacity="0.15"/>
<ellipse id="Ellipse 9_6" cx="80.2385" cy="171.973" rx="4.42526" ry="4.30954" fill="#000033" fill-opacity="0.15"/>
<ellipse id="Ellipse 10_6" cx="80.2385" cy="195.841" rx="4.42526" ry="4.30954" fill="#000033" fill-opacity="0.15"/>
<ellipse id="Ellipse 11_6" cx="80.2385" cy="219.709" rx="4.42526" ry="4.30954" fill="#000033" fill-opacity="0.15"/>
</g>
<g id="Group 7">
<ellipse id="Ellipse 2_7" cx="95.2163" cy="4.89559" rx="4.42526" ry="4.30954" fill="#000033" fill-opacity="0.15"/>
<ellipse id="Ellipse 3_7" cx="95.2163" cy="28.7638" rx="4.42526" ry="4.30954" fill="#000033" fill-opacity="0.15"/>
<ellipse id="Ellipse 4_7" cx="95.2163" cy="52.6319" rx="4.42526" ry="4.30954" fill="#000033" fill-opacity="0.15"/>
<ellipse id="Ellipse 5_7" cx="95.2163" cy="76.5001" rx="4.42526" ry="4.30954" fill="#000033" fill-opacity="0.15"/>
<ellipse id="Ellipse 6_7" cx="95.2163" cy="100.368" rx="4.42526" ry="4.30954" fill="#000033" fill-opacity="0.15"/>
<ellipse id="Ellipse 7_7" cx="95.2163" cy="124.237" rx="4.42526" ry="4.30954" fill="#000033" fill-opacity="0.15"/>
<ellipse id="Ellipse 8_7" cx="95.2163" cy="148.105" rx="4.42526" ry="4.30954" fill="#000033" fill-opacity="0.15"/>
<ellipse id="Ellipse 9_7" cx="95.2163" cy="171.973" rx="4.42526" ry="4.30954" fill="#000033" fill-opacity="0.15"/>
<ellipse id="Ellipse 10_7" cx="95.2163" cy="195.841" rx="4.42526" ry="4.30954" fill="#000033" fill-opacity="0.15"/>
<ellipse id="Ellipse 11_7" cx="95.2163" cy="219.709" rx="4.42526" ry="4.30954" fill="#000033" fill-opacity="0.15"/>
</g>
</g>
</svg>
