<?xml version="1.0" encoding="UTF-8"?>
<!DOCTYPE svg PUBLIC "-//W3C//DTD SVG 1.1//EN" "http://www.w3.org/Graphics/SVG/1.1/DTD/svg11.dtd">
<!-- Creator: CorelDRAW -->
<svg xmlns="http://www.w3.org/2000/svg" xml:space="preserve" width="210mm" height="297mm" version="1.1" style="shape-rendering:geometricPrecision; text-rendering:geometricPrecision; image-rendering:optimizeQuality; fill-rule:evenodd; clip-rule:evenodd"
viewBox="0 0 21000 29700"
 xmlns:xlink="http://www.w3.org/1999/xlink"
 xmlns:xodm="http://www.corel.com/coreldraw/odm/2003">
 <defs>
  <style type="text/css">
   <![CDATA[
    .fil0 {fill:#5F9DF7}
   ]]>
  </style>
     <clipPath id="id0">
      <path d="M8736.69 19876.57c-557.47,-544.85 -570.01,-1440.61 -26.56,-1996.64 401.92,-411.21 1094.16,-617.98 1593.79,-669.62 107.44,-11.11 213.95,-23.38 319.5,-24.43 122.66,-1.22 523.54,-7.19 636.37,96.31 112.67,103.36 121.12,515.1 119.82,637.07 -2.28,213.66 -21.86,425.69 -60.44,639.76 -81.09,450 -255.52,952.33 -599.26,1304.01 -527.38,539.58 -1429.85,554.4 -1983.22,13.54z"/>
     </clipPath>
 </defs>
 <g id="Layer_x0020_1">
  <metadata id="CorelCorpID_0Corel-Layer"/>
  <g id="_1824794742400">
   <path class="fil0" d="M11637.3 18884.76c-557.46,-544.85 -1453.27,-536.91 -1996.72,19.12 -401.92,411.21 -592.8,1108 -633.01,1608.68 -8.64,107.67 -18.48,214.43 -17.11,319.97 1.58,122.66 4.78,523.57 110.84,634.01 105.9,110.27 517.73,109.3 639.64,105.21 213.55,-7.16 425.07,-31.59 638.21,-75.05 448.03,-91.36 946.23,-277.24 1289.97,-628.93 527.37,-539.57 521.55,-1442.15 -31.82,-1983.01z"/>
   <g>
    <g style="clip-path:url(#id0)">
     <image x="8310.43" y="17185.39" width="3069.3" height="3089.65" xlink:href="Icon_Images\Icon_ImgID1.png"/>
    </g>
   </g>
  </g>
 </g>
</svg>
