<svg width="15" height="15" viewBox="0 0 15 15" fill="none" xmlns="http://www.w3.org/2000/svg">
<path d="M7.34961 3.8208C9.31836 3.8208 10.9434 5.4458 10.9434 7.41455C10.9434 9.41455 9.31836 11.0083 7.34961 11.0083C5.34961 11.0083 3.75586 9.41455 3.75586 7.41455C3.75586 5.4458 5.34961 3.8208 7.34961 3.8208ZM7.34961 9.7583C8.63086 9.7583 9.66211 8.72705 9.66211 7.41455C9.66211 6.1333 8.63086 5.10205 7.34961 5.10205C6.03711 5.10205 5.00586 6.1333 5.00586 7.41455C5.00586 8.72705 6.06836 9.7583 7.34961 9.7583ZM11.9121 3.6958C11.9121 4.16455 11.5371 4.53955 11.0684 4.53955C10.5996 4.53955 10.2246 4.16455 10.2246 3.6958C10.2246 3.22705 10.5996 2.85205 11.0684 2.85205C11.5371 2.85205 11.9121 3.22705 11.9121 3.6958ZM14.2871 4.53955C14.3496 5.6958 14.3496 9.16455 14.2871 10.3208C14.2246 11.4458 13.9746 12.4146 13.1621 13.2583C12.3496 14.0708 11.3496 14.3208 10.2246 14.3833C9.06836 14.4458 5.59961 14.4458 4.44336 14.3833C3.31836 14.3208 2.34961 14.0708 1.50586 13.2583C0.693359 12.4146 0.443359 11.4458 0.380859 10.3208C0.318359 9.16455 0.318359 5.6958 0.380859 4.53955C0.443359 3.41455 0.693359 2.41455 1.50586 1.60205C2.34961 0.789551 3.31836 0.539551 4.44336 0.477051C5.59961 0.414551 9.06836 0.414551 10.2246 0.477051C11.3496 0.539551 12.3496 0.789551 13.1621 1.60205C13.9746 2.41455 14.2246 3.41455 14.2871 4.53955ZM12.7871 11.5396C13.1621 10.6333 13.0684 8.4458 13.0684 7.41455C13.0684 6.41455 13.1621 4.22705 12.7871 3.28955C12.5371 2.6958 12.0684 2.1958 11.4746 1.97705C10.5371 1.60205 8.34961 1.6958 7.34961 1.6958C6.31836 1.6958 4.13086 1.60205 3.22461 1.97705C2.59961 2.22705 2.13086 2.6958 1.88086 3.28955C1.50586 4.22705 1.59961 6.41455 1.59961 7.41455C1.59961 8.4458 1.50586 10.6333 1.88086 11.5396C2.13086 12.1646 2.59961 12.6333 3.22461 12.8833C4.13086 13.2583 6.31836 13.1646 7.34961 13.1646C8.34961 13.1646 10.5371 13.2583 11.4746 12.8833C12.0684 12.6333 12.5684 12.1646 12.7871 11.5396Z" fill="black"/>
</svg>
