<svg width="20" height="20" viewBox="0 0 20 20" fill="none" xmlns="http://www.w3.org/2000/svg">
<path fill-rule="evenodd" clip-rule="evenodd" d="M10.5 4.95C9.184 4.95 8.118 5.993 8.118 7.28C8.118 8.567 9.184 9.612 10.501 9.612C11.816 9.612 12.884 8.567 12.884 7.281C12.884 5.993 11.816 4.95 10.501 4.95M10.501 2.131C7.566 2.131 5.179 4.466 5.179 7.337C5.179 11.627 9.08 16.405 10.501 17.665C11.92 16.405 15.821 11.627 15.821 7.337C15.821 4.467 13.434 2.131 10.501 2.131ZM10.5 20C8.77 20 3 12.968 3 7.337C3 3.29 6.365 0 10.5 0C14.635 0 18 3.291 18 7.337C18 12.968 12.232 20 10.5 20Z" fill="#606060"/>
</svg>
