<svg width="72" height="28" viewBox="0 0 72 28" fill="none" xmlns="http://www.w3.org/2000/svg">
<path id="Vector" d="M4.32516 11.3957C3.67816 11.3957 3.09543 11.2649 2.57699 11.0033C2.05845 10.7417 1.64855 10.365 1.34728 9.87324C1.0459 9.38139 0.890829 8.80057 0.881958 8.13093H2.87608C2.90269 8.58089 3.03783 8.93672 3.28149 9.1983C3.52527 9.45987 3.85983 9.59071 4.28529 9.59071C4.71951 9.59071 5.06076 9.46776 5.30892 9.22183C5.55707 8.9759 5.68114 8.65408 5.68114 8.25648C5.68114 7.93207 5.59694 7.66532 5.42851 7.45599C5.26018 7.24678 5.0497 7.08192 4.79705 6.96154C4.54451 6.84129 4.19659 6.70785 3.7535 6.56136C3.15085 6.35202 2.6611 6.14541 2.28448 5.94138C1.90787 5.73734 1.58438 5.42856 1.31399 5.01519C1.04371 4.60195 0.908566 4.04998 0.908566 3.35939C0.908566 2.71056 1.04589 2.14552 1.32066 1.66414C1.59543 1.18276 1.98092 0.813993 2.47723 0.557592C2.97355 0.301191 3.54082 0.173065 4.17895 0.173065C5.1361 0.173065 5.91375 0.447691 6.51202 0.997084C7.11029 1.54648 7.44037 2.31296 7.50246 3.29654H5.45511C5.43737 2.91989 5.30223 2.60855 5.04969 2.36262C4.79704 2.11669 4.46249 1.99373 4.04601 1.99373C3.68265 1.99373 3.39232 2.10363 3.17516 2.32344C2.9581 2.54312 2.84947 2.86223 2.84947 3.2809C2.84947 3.57389 2.9315 3.81711 3.09544 4.01067C3.25938 4.20436 3.46329 4.3612 3.70696 4.48158C3.95073 4.60196 4.29417 4.74057 4.73726 4.89753C5.33991 5.10687 5.83184 5.31607 6.21295 5.52541C6.59405 5.73461 6.92194 6.04855 7.1967 6.4671C7.47147 6.88564 7.6088 7.43504 7.6088 8.11529C7.6088 8.70127 7.48023 9.24535 7.22331 9.74755C6.96628 10.2499 6.58955 10.6502 6.09324 10.9484C5.59693 11.2467 5.00754 11.3957 4.32516 11.3957ZM11.3843 4.39521V8.60184C11.3843 8.89483 11.4441 9.10676 11.5638 9.23748C11.6834 9.36833 11.8851 9.43375 12.1686 9.43375H13.0328V11.2858H11.8628C10.2942 11.2858 9.50984 10.3859 9.50984 8.58605V4.39521H8.63242V2.59018H9.50984V0.439809H11.3843V2.59018H13.0328V4.39521H11.3843ZM13.8968 6.90659C13.8968 6.02761 14.0453 5.24806 14.3422 4.56795C14.6391 3.8877 15.0423 3.36456 15.5519 2.99826C16.0616 2.63208 16.6309 2.44899 17.2602 2.44899C17.8097 2.44899 18.2905 2.57972 18.7027 2.84142C19.1148 3.10299 19.4449 3.43257 19.693 3.83017V2.59018H21.5676V11.2858H19.693V10.0144C19.4537 10.4225 19.1237 10.76 18.7027 11.0268C18.2816 11.2937 17.7965 11.4272 17.2469 11.4272C16.6265 11.4272 16.0616 11.2388 15.5519 10.862C15.0423 10.4853 14.6391 9.95431 14.3422 9.26889C14.0453 8.58348 13.8968 7.79604 13.8968 6.90659ZM19.693 6.938C19.693 6.40439 19.6044 5.94654 19.4271 5.56459C19.2499 5.18264 19.0106 4.88965 18.7093 4.68562C18.408 4.48158 18.0845 4.37957 17.7389 4.37957C17.3931 4.37957 17.0741 4.47899 16.7816 4.67785C16.4892 4.87659 16.2521 5.16699 16.0704 5.54894C15.8888 5.93089 15.7979 6.38344 15.7979 6.90659C15.7979 7.42986 15.8888 7.88758 16.0704 8.28C16.2521 8.67243 16.4914 8.97332 16.7883 9.18252C17.0852 9.39186 17.402 9.49646 17.7389 9.49646C18.0845 9.49646 18.408 9.39444 18.7093 9.1904C19.0106 8.98637 19.2499 8.69338 19.4271 8.31143C19.6044 7.92948 19.693 7.47175 19.693 6.938ZM25.2499 3.94007C25.4892 3.47964 25.8017 3.11864 26.1872 2.85706C26.5727 2.59549 27.0136 2.46463 27.51 2.46463V4.77199H27.018C26.4331 4.77199 25.9922 4.93413 25.6953 5.25854C25.3984 5.58295 25.2499 6.14799 25.2499 6.95379V11.2858H23.3888V2.59018H25.2499V3.94007ZM30.9265 4.39521V8.60184C30.9265 8.89483 30.9863 9.10676 31.106 9.23748C31.2257 9.36833 31.4273 9.43375 31.7109 9.43375H32.575V11.2858H31.4051C29.8365 11.2858 29.0521 10.3859 29.0521 8.58605V4.39521H28.1747V2.59018H29.0521V0.439809H30.9265V2.59018H32.575V4.39521H30.9265ZM4.32516 27.7582C3.67816 27.7582 3.09543 27.6273 2.57699 27.3658C2.05845 27.1042 1.64855 26.7274 1.34728 26.2357C1.0459 25.7438 0.890829 25.163 0.881958 24.4934H2.87608C2.90269 24.9433 3.03783 25.2992 3.28149 25.5608C3.52527 25.8223 3.85983 25.9532 4.28529 25.9532C4.71951 25.9532 5.06076 25.8302 5.30892 25.5843C5.55707 25.3384 5.68114 25.0165 5.68114 24.6189C5.68114 24.2945 5.59694 24.0278 5.42851 23.8184C5.26018 23.6092 5.0497 23.4444 4.79705 23.324C4.54451 23.2038 4.19659 23.0703 3.7535 22.9238C3.15085 22.7145 2.6611 22.5079 2.28448 22.3038C1.90787 22.0998 1.58438 21.791 1.31399 21.3777C1.04371 20.9644 0.908566 20.4124 0.908566 19.7218C0.908566 19.073 1.04589 18.508 1.32066 18.0266C1.59543 17.5452 1.98092 17.1765 2.47723 16.9201C2.97355 16.6637 3.54082 16.5355 4.17895 16.5355C5.1361 16.5355 5.91375 16.8102 6.51202 17.3595C7.11029 17.9089 7.44037 18.6754 7.50246 19.659H5.45511C5.43737 19.2824 5.30223 18.971 5.04969 18.7251C4.79704 18.4792 4.46249 18.3562 4.04601 18.3562C3.68265 18.3562 3.39232 18.4661 3.17516 18.6859C2.9581 18.9056 2.84947 19.2247 2.84947 19.6434C2.84947 19.9364 2.9315 20.1796 3.09544 20.3731C3.25938 20.5668 3.46329 20.7237 3.70696 20.8441C3.95073 20.9644 4.29417 21.103 4.73726 21.26C5.33991 21.4693 5.83184 21.6785 6.21295 21.8879C6.59405 22.0971 6.92194 22.411 7.1967 22.8296C7.47147 23.2481 7.6088 23.7975 7.6088 24.4777C7.6088 25.0637 7.48023 25.6078 7.22331 26.11C6.96628 26.6124 6.58955 27.0127 6.09324 27.3108C5.59693 27.6091 5.00754 27.7582 4.32516 27.7582ZM18.3637 18.8271C19.2677 18.8271 19.9967 19.1541 20.5506 19.8081C21.1045 20.4621 21.3815 21.3751 21.3815 22.547V27.6483H19.5203V22.8453C19.5203 22.1651 19.374 21.6445 19.0816 21.2835C18.7891 20.9225 18.3902 20.742 17.8851 20.742C17.3799 20.742 16.9788 20.9225 16.682 21.2835C16.3851 21.6445 16.2367 22.1651 16.2367 22.8453V27.6483H14.3755V22.8453C14.3755 22.1651 14.2292 21.6445 13.9368 21.2835C13.6443 20.9225 13.2454 20.742 12.7402 20.742C12.2262 20.742 11.8208 20.9225 11.5239 21.2835C11.227 21.6445 11.0785 22.1651 11.0785 22.8453V27.6483H9.21733V18.9526H11.0785V20.0044C11.3178 19.6381 11.6257 19.3504 12.0025 19.141C12.3791 18.9317 12.7935 18.8271 13.2454 18.8271C13.8216 18.8271 14.3355 18.971 14.7876 19.2587C15.2396 19.5465 15.5897 19.9572 15.8378 20.4909C16.0771 19.9886 16.4249 19.5857 16.8814 19.2824C17.3378 18.9789 17.8319 18.8271 18.3637 18.8271ZM22.671 23.269C22.671 22.3901 22.8195 21.6105 23.1164 20.9304C23.4133 20.2502 23.8165 19.727 24.3261 19.3607C24.8358 18.9945 25.4051 18.8114 26.0344 18.8114C26.5839 18.8114 27.0647 18.9422 27.4769 19.2039C27.889 19.4654 28.219 19.795 28.4672 20.1926V18.9526H30.3417V27.6483H28.4672V26.3769C28.2279 26.785 27.8979 27.1224 27.4769 27.3893C27.0558 27.6562 26.5707 27.7896 26.0211 27.7896C25.4007 27.7896 24.8358 27.6012 24.3261 27.2245C23.8165 26.8478 23.4133 26.3168 23.1164 25.6314C22.8195 24.9459 22.671 24.1585 22.671 23.269ZM28.4672 23.3005C28.4672 22.7668 28.3786 22.309 28.2013 21.9271C28.0241 21.5451 27.7848 21.2521 27.4834 21.0481C27.1822 20.844 26.8587 20.742 26.5131 20.742C26.1673 20.742 25.8483 20.8415 25.5558 21.0403C25.2634 21.2391 25.0263 21.5295 24.8446 21.9114C24.6629 22.2934 24.572 22.7459 24.572 23.269C24.572 23.7923 24.6629 24.2501 24.8446 24.6425C25.0263 25.0349 25.2656 25.3358 25.5625 25.545C25.8594 25.7543 26.1762 25.8589 26.5131 25.8589C26.8587 25.8589 27.1822 25.7569 27.4834 25.5529C27.7848 25.3488 28.0241 25.0558 28.2013 24.6739C28.3786 24.2919 28.4672 23.8342 28.4672 23.3005ZM34.0241 20.3025C34.2634 19.8421 34.5758 19.4811 34.9613 19.2195C35.3469 18.958 35.7878 18.8271 36.2841 18.8271V21.1344H35.7922C35.2073 21.1344 34.7664 21.2966 34.4695 21.621C34.1726 21.9454 34.0241 22.5105 34.0241 23.3162V27.6483H32.163V18.9526H34.0241V20.3025ZM39.7007 20.7577V24.9643C39.7007 25.2573 39.7605 25.4692 39.8802 25.5999C39.9999 25.7308 40.2015 25.7962 40.4851 25.7962H41.3492V27.6483H40.1793C38.6106 27.6483 37.8263 26.7484 37.8263 24.9485V20.7577H36.9489V18.9526H37.8263V16.8023H39.7007V18.9526H41.3492V20.7577H39.7007ZM53.5533 16.6925V27.6483H51.6921V22.9865H47.7171V27.6483H45.8559V16.6925H47.7171V21.1971H51.6921V16.6925H53.5533ZM62.3407 18.9526V27.6483H60.4662V26.5495C60.2269 26.9263 59.9144 27.2219 59.529 27.4364C59.1435 27.6509 58.7247 27.7582 58.2726 27.7582C57.6966 27.7582 57.187 27.6143 56.7438 27.3265C56.3007 27.0388 55.9528 26.6149 55.7003 26.0552C55.4476 25.4953 55.3214 24.8283 55.3214 24.0539V18.9526H57.1825V23.74C57.1825 24.4305 57.3287 24.9617 57.6212 25.3332C57.9137 25.7045 58.3126 25.8903 58.8178 25.8903C59.3317 25.8903 59.7351 25.7045 60.0275 25.3332C60.32 24.9617 60.4662 24.4305 60.4662 23.74V18.9526H62.3407ZM66.0364 20.224C66.2757 19.8055 66.6059 19.4654 67.0269 19.2039C67.4479 18.9422 67.9286 18.8114 68.4693 18.8114C69.0985 18.8114 69.668 18.9945 70.1776 19.3607C70.6871 19.727 71.0905 20.2476 71.3874 20.9225C71.6843 21.5975 71.8326 22.3796 71.8326 23.269C71.8326 24.1585 71.6843 24.9459 71.3874 25.6314C71.0905 26.3168 70.6871 26.8478 70.1776 27.2245C69.668 27.6012 69.0985 27.7896 68.4693 27.7896C67.9197 27.7896 67.439 27.6614 67.0269 27.405C66.6148 27.1487 66.2846 26.8164 66.0364 26.4083V27.6483H64.1753V16.0332H66.0364V20.224ZM69.9316 23.269C69.9316 22.7459 69.8408 22.2934 69.6591 21.9114C69.4774 21.5295 69.2382 21.2391 68.9413 21.0403C68.6443 20.8415 68.3231 20.742 67.9775 20.742C67.6406 20.742 67.3238 20.844 67.0269 21.0481C66.73 21.2521 66.4907 21.5478 66.309 21.9349C66.1273 22.3221 66.0364 22.7773 66.0364 23.3005C66.0364 23.8237 66.1273 24.2789 66.309 24.666C66.4907 25.0533 66.73 25.3488 67.0269 25.5529C67.3238 25.7569 67.6406 25.8589 67.9775 25.8589C68.3231 25.8589 68.6443 25.7543 68.9413 25.545C69.2382 25.3358 69.4774 25.0375 69.6591 24.6504C69.8408 24.2632 69.9316 23.8028 69.9316 23.269Z" fill="#373435"/>
</svg>
