<svg width="20" height="24" viewBox="0 0 20 24" fill="none" xmlns="http://www.w3.org/2000/svg">
<path fill-rule="evenodd" clip-rule="evenodd" d="M3.68606 12.35L10.9861 17.266L16.3651 8.79401L15.0451 2.87801L9.06506 3.87801L3.68606 12.349V12.35ZM10.6691 19.705L1.54506 13.56C1.30367 13.3965 1.13681 13.1441 1.08097 12.858C1.02513 12.5719 1.08485 12.2752 1.24706 12.033L7.50506 2.25601C7.67506 2.00601 7.93906 1.83601 8.23706 1.78601L15.7091 0.536007C15.9868 0.489295 16.2719 0.550888 16.5055 0.708095C16.7392 0.865302 16.9037 1.10615 16.9651 1.38101L18.6161 8.77601C18.6821 9.07101 18.6231 9.38101 18.4541 9.63201L12.1961 19.406C12.1156 19.5261 12.0123 19.6292 11.8919 19.7093C11.7716 19.7894 11.6366 19.845 11.4948 19.8728C11.353 19.9007 11.207 19.9003 11.0653 19.8717C10.9236 19.8431 10.789 19.7858 10.6691 19.705ZM13.3321 8.62201C13.2135 8.80724 13.0592 8.96692 12.8781 9.09166C12.697 9.21639 12.4928 9.30367 12.2775 9.34835C12.0622 9.39304 11.8401 9.39423 11.6243 9.35187C11.4085 9.3095 11.2034 9.22443 11.0209 9.10165C10.8385 8.97887 10.6824 8.82086 10.5619 8.63691C10.4414 8.45296 10.3589 8.24678 10.3193 8.03048C10.2796 7.81418 10.2835 7.59214 10.3309 7.3774C10.3783 7.16265 10.4681 6.95954 10.5951 6.78001C10.8439 6.42814 11.2206 6.18762 11.6445 6.10986C12.0684 6.0321 12.5059 6.12328 12.8634 6.36391C13.221 6.60454 13.4702 6.97551 13.5578 7.39749C13.6453 7.81947 13.5643 8.25897 13.3321 8.62201Z" fill="#606060"/>
</svg>
