<svg width="71" height="24" viewBox="0 0 71 24" fill="none" xmlns="http://www.w3.org/2000/svg">
<path id="Vector" d="M3.4456 9.51191C2.79814 9.51191 2.21501 9.401 1.69621 9.1793C1.17731 8.9576 0.767127 8.63826 0.465647 8.22149C0.164058 7.80462 0.00887673 7.31234 0 6.74478H1.99551C2.02214 7.12615 2.15737 7.42774 2.4012 7.64943C2.64515 7.87113 2.97994 7.98203 3.4057 7.98203C3.84022 7.98203 4.18171 7.87782 4.43004 7.66938C4.67837 7.46094 4.80252 7.18818 4.80252 6.85119C4.80252 6.57623 4.71826 6.35014 4.54971 6.17272C4.38127 5.9954 4.17064 5.85568 3.91781 5.75365C3.6651 5.65173 3.31694 5.53863 2.87354 5.41447C2.27047 5.23704 1.78038 5.06193 1.4035 4.889C1.02662 4.71606 0.702907 4.45436 0.432332 4.104C0.161865 3.75375 0.0266268 3.28592 0.0266268 2.7006C0.0266268 2.15069 0.16405 1.67178 0.43901 1.26378C0.713969 0.855775 1.09973 0.543226 1.59639 0.32591C2.09304 0.108595 2.66071 0 3.29929 0C4.2571 0 5.03529 0.232762 5.63398 0.698407C6.23266 1.16405 6.56297 1.81369 6.62511 2.64734H4.57633C4.55858 2.32811 4.42334 2.06422 4.17063 1.85578C3.91781 1.64734 3.58302 1.54312 3.16625 1.54312C2.80263 1.54312 2.51211 1.63627 2.29479 1.82257C2.07759 2.00877 1.96888 2.27923 1.96888 2.63408C1.96888 2.88241 2.05096 3.08855 2.21502 3.25261C2.37907 3.41677 2.58313 3.5497 2.82696 3.65173C3.07091 3.75376 3.41458 3.87124 3.85798 4.00428C4.46105 4.1817 4.95332 4.35901 5.33469 4.53644C5.71606 4.71375 6.04417 4.97984 6.31913 5.33458C6.59409 5.68932 6.73152 6.15497 6.73152 6.73152C6.73152 7.22818 6.60286 7.68932 6.34576 8.11496C6.08855 8.54072 5.71156 8.88001 5.2149 9.13272C4.71825 9.38554 4.12845 9.51191 3.4456 9.51191ZM10.5096 3.57853V7.1439C10.5096 7.39223 10.5694 7.57185 10.6892 7.68264C10.809 7.79355 11.0108 7.849 11.2945 7.849H12.1592V9.41875H10.9885C9.41876 9.41875 8.63387 8.656 8.63387 7.13052V3.57853H7.75584V2.04865H8.63387V0.226081H10.5096V2.04865H12.1592V3.57853H10.5096ZM13.0239 5.70707C13.0239 4.96209 13.1725 4.30137 13.4696 3.72493C13.7667 3.14838 14.1702 2.70499 14.6801 2.39452C15.1902 2.08417 15.7599 1.92898 16.3896 1.92898C16.9395 1.92898 17.4206 2.03979 17.8331 2.26159C18.2455 2.48329 18.5758 2.76263 18.8241 3.09962V2.04865H20.7V9.41875H18.8241V8.34116C18.5847 8.68703 18.2544 8.97305 17.8331 9.19924C17.4117 9.42544 16.9263 9.53853 16.3764 9.53853C15.7555 9.53853 15.1902 9.37886 14.6801 9.05952C14.1702 8.74028 13.7667 8.2902 13.4696 7.70927C13.1725 7.12834 13.0239 6.46094 13.0239 5.70707ZM18.8241 5.7337C18.8241 5.28142 18.7355 4.89337 18.5581 4.56965C18.3807 4.24592 18.1413 3.9976 17.8397 3.82466C17.5382 3.65173 17.2145 3.56527 16.8686 3.56527C16.5227 3.56527 16.2034 3.64953 15.9107 3.81808C15.6181 3.98652 15.3808 4.23266 15.199 4.55639C15.0172 4.88011 14.9263 5.26367 14.9263 5.70707C14.9263 6.15058 15.0172 6.53852 15.199 6.87113C15.3808 7.20373 15.6203 7.45875 15.9174 7.63607C16.2145 7.81349 16.5315 7.90214 16.8686 7.90214C17.2145 7.90214 17.5382 7.81568 17.8397 7.64275C18.1413 7.46981 18.3807 7.22149 18.5581 6.89776C18.7355 6.57404 18.8241 6.18608 18.8241 5.7337ZM24.3849 3.19277C24.6244 2.80252 24.937 2.49655 25.3228 2.27485C25.7086 2.05315 26.1498 1.94224 26.6465 1.94224V3.89787H26.1542C25.5689 3.89787 25.1277 4.03529 24.8306 4.31025C24.5335 4.58521 24.3849 5.06412 24.3849 5.74708V9.41875H22.5224V2.04865H24.3849V3.19277ZM30.0655 3.57853V7.1439C30.0655 7.39223 30.1253 7.57185 30.2451 7.68264C30.3649 7.79355 30.5666 7.849 30.8503 7.849H31.7151V9.41875H30.5444C28.9746 9.41875 28.1897 8.656 28.1897 7.13052V3.57853H27.3117V2.04865H28.1897V0.226081H30.0655V2.04865H31.7151V3.57853H30.0655ZM3.4456 23.3801C2.79814 23.3801 2.21501 23.2692 1.69621 23.0475C1.17731 22.8258 0.767127 22.5064 0.465647 22.0897C0.164058 21.6728 0.00887673 21.1805 0 20.613H1.99551C2.02214 20.9943 2.15737 21.2959 2.4012 21.5176C2.64515 21.7393 2.97994 21.8502 3.4057 21.8502C3.84022 21.8502 4.18171 21.746 4.43004 21.5376C4.67837 21.3291 4.80252 21.0564 4.80252 20.7194C4.80252 20.4444 4.71826 20.2183 4.54971 20.0409C4.38127 19.8636 4.17064 19.7239 3.91781 19.6218C3.6651 19.5199 3.31694 19.4068 2.87354 19.2827C2.27047 19.1052 1.78038 18.9301 1.4035 18.7572C1.02662 18.5842 0.702907 18.3225 0.432332 17.9722C0.161865 17.6219 0.0266268 17.1541 0.0266268 16.5688C0.0266268 16.0189 0.16405 15.54 0.43901 15.132C0.713969 14.724 1.09973 14.4114 1.59639 14.1941C2.09304 13.9768 2.66071 13.8682 3.29929 13.8682C4.2571 13.8682 5.03529 14.1009 5.63398 14.5666C6.23266 15.0322 6.56297 15.6819 6.62511 16.5155H4.57633C4.55858 16.1963 4.42334 15.9324 4.17063 15.724C3.91781 15.5155 3.58302 15.4113 3.16625 15.4113C2.80263 15.4113 2.51211 15.5045 2.29479 15.6908C2.07759 15.877 1.96888 16.1474 1.96888 16.5023C1.96888 16.7506 2.05096 16.9567 2.21502 17.1208C2.37907 17.285 2.58313 17.4179 2.82696 17.5199C3.07091 17.622 3.41458 17.7394 3.85798 17.8725C4.46105 18.0499 4.95332 18.2272 5.33469 18.4046C5.71606 18.5819 6.04417 18.848 6.31913 19.2028C6.59409 19.5575 6.73152 20.0232 6.73152 20.5997C6.73152 21.0964 6.60286 21.5575 6.34576 21.9832C6.08855 22.4089 5.71156 22.7482 5.2149 23.0009C4.71825 23.2537 4.12845 23.3801 3.4456 23.3801ZM17.4939 15.8104C18.3985 15.8104 19.128 16.0876 19.6823 16.6419C20.2366 17.1962 20.5138 17.97 20.5138 18.9633V23.2869H18.6513V19.2161C18.6513 18.6396 18.5049 18.1984 18.2123 17.8924C17.9196 17.5864 17.5205 17.4335 17.0149 17.4335C16.5094 17.4335 16.1081 17.5864 15.811 17.8924C15.5139 18.1984 15.3654 18.6396 15.3654 19.2161V23.2869H13.5029V19.2161C13.5029 18.6396 13.3565 18.1984 13.0639 17.8924C12.7712 17.5864 12.3721 17.4335 11.8665 17.4335C11.3521 17.4335 10.9464 17.5864 10.6493 17.8924C10.3522 18.1984 10.2036 18.6396 10.2036 19.2161V23.2869H8.34116V15.9168H10.2036V16.8082C10.4431 16.4978 10.7513 16.2539 11.1282 16.0765C11.5051 15.8991 11.9198 15.8104 12.3721 15.8104C12.9486 15.8104 13.4629 15.9324 13.9153 16.1762C14.3676 16.4202 14.7179 16.7682 14.9663 17.2206C15.2057 16.7949 15.5538 16.4534 16.0105 16.1963C16.4673 15.9391 16.9618 15.8104 17.4939 15.8104ZM21.8042 19.5753C21.8042 18.8303 21.9528 18.1696 22.2499 17.5931C22.547 17.0166 22.9505 16.5732 23.4604 16.2627C23.9704 15.9524 24.5402 15.7972 25.1699 15.7972C25.7198 15.7972 26.2009 15.908 26.6134 16.1298C27.0258 16.3515 27.3561 16.6308 27.6044 16.9678V15.9168H29.4803V23.2869H27.6044V22.2094C27.365 22.5552 27.0347 22.8412 26.6134 23.0674C26.192 23.2936 25.7066 23.4067 25.1566 23.4067C24.5358 23.4067 23.9704 23.247 23.4604 22.9277C22.9505 22.6085 22.547 22.1584 22.2499 21.5775C21.9528 20.9965 21.8042 20.3291 21.8042 19.5753ZM27.6044 19.6019C27.6044 19.1496 27.5158 18.7616 27.3383 18.4378C27.161 18.1141 26.9216 17.8658 26.62 17.6928C26.3185 17.5199 25.9948 17.4335 25.6489 17.4335C25.3029 17.4335 24.9837 17.5177 24.691 17.6863C24.3984 17.8547 24.1611 18.1008 23.9793 18.4246C23.7975 18.7483 23.7066 19.1319 23.7066 19.5753C23.7066 20.0188 23.7975 20.4067 23.9793 20.7393C24.1611 21.0719 24.4006 21.3269 24.6977 21.5042C24.9948 21.6817 25.3118 21.7703 25.6489 21.7703C25.9948 21.7703 26.3185 21.6839 26.62 21.5109C26.9216 21.338 27.161 21.0897 27.3383 20.7659C27.5158 20.4422 27.6044 20.0543 27.6044 19.6019ZM33.1652 17.061C33.4046 16.6707 33.7173 16.3647 34.1031 16.143C34.4889 15.9213 34.9301 15.8104 35.4268 15.8104V17.7661H34.9345C34.3492 17.7661 33.908 17.9035 33.6109 18.1784C33.3138 18.4534 33.1652 18.9323 33.1652 19.6153V23.2869H31.3027V15.9168H33.1652V17.061ZM38.8458 17.4467V21.0121C38.8458 21.2604 38.9056 21.44 39.0254 21.5508C39.1451 21.6617 39.3469 21.7172 39.6306 21.7172H40.4954V23.2869H39.3247C37.7549 23.2869 36.97 22.5242 36.97 20.9987V17.4467H36.092V15.9168H36.97V14.0943H38.8458V15.9168H40.4954V17.4467H38.8458ZM52.7079 14.0012V23.2869H50.8454V19.3358H46.8677V23.2869H45.0052V14.0012H46.8677V17.8192H50.8454V14.0012H52.7079ZM61.5015 15.9168V23.2869H59.6256V22.3557C59.3862 22.675 59.0735 22.9255 58.6878 23.1073C58.302 23.2891 57.8829 23.3801 57.4305 23.3801C56.8541 23.3801 56.3442 23.2581 55.9007 23.0142C55.4573 22.7703 55.1091 22.4111 54.8564 21.9367C54.6036 21.4622 54.4772 20.8968 54.4772 20.2405V15.9168H56.3397V19.9744C56.3397 20.5597 56.486 21.0099 56.7787 21.3247C57.0714 21.6395 57.4705 21.797 57.9761 21.797C58.4904 21.797 58.894 21.6395 59.1866 21.3247C59.4793 21.0099 59.6256 20.5597 59.6256 19.9744V15.9168H61.5015ZM65.1998 16.9944C65.4392 16.6397 65.7696 16.3515 66.1909 16.1298C66.6122 15.908 67.0933 15.7972 67.6343 15.7972C68.264 15.7972 68.8338 15.9524 69.3438 16.2627C69.8537 16.5732 70.2573 17.0144 70.5544 17.5864C70.8515 18.1585 71 18.8214 71 19.5753C71 20.3291 70.8515 20.9965 70.5544 21.5775C70.2573 22.1584 69.8537 22.6085 69.3438 22.9277C68.8338 23.247 68.264 23.4067 67.6343 23.4067C67.0844 23.4067 66.6033 23.298 66.1909 23.0807C65.7785 22.8635 65.4481 22.5818 65.1998 22.236V23.2869H63.3373V13.4424H65.1998V16.9944ZM69.0976 19.5753C69.0976 19.1319 69.0068 18.7483 68.825 18.4246C68.6432 18.1008 68.4037 17.8547 68.1066 17.6863C67.8094 17.5177 67.488 17.4335 67.1421 17.4335C66.805 17.4335 66.488 17.5199 66.1909 17.6928C65.8938 17.8658 65.6543 18.1164 65.4725 18.4445C65.2907 18.7726 65.1998 19.1585 65.1998 19.6019C65.1998 20.0454 65.2907 20.4312 65.4725 20.7593C65.6543 21.0875 65.8938 21.338 66.1909 21.5109C66.488 21.6839 66.805 21.7703 67.1421 21.7703C67.488 21.7703 67.8094 21.6817 68.1066 21.5042C68.4037 21.3269 68.6432 21.0741 68.825 20.746C69.0068 20.4179 69.0976 20.0276 69.0976 19.5753Z" fill="#373435"/>
</svg>
