<svg width="70" height="39" viewBox="0 0 70 39" fill="none" xmlns="http://www.w3.org/2000/svg">
<path fill-rule="evenodd" clip-rule="evenodd" d="M4.58557 2.17822V2.97851C5.23927 2.9096 5.84993 3.0754 6.41757 3.47591C6.98521 3.87643 7.47528 4.48729 7.8878 5.3085L22.0256 35.3027H23.0796L28.7912 20.1988V15.8166L24.5247 26.5991C18.9687 14.4826 16.0589 8.09598 15.7952 7.43923C15.3998 6.4541 14.5629 4.92213 15.7952 3.91613C16.6168 3.24547 17.5289 2.93293 18.5315 2.97851V2.17822H4.58557Z" fill="black"/>
<path fill-rule="evenodd" clip-rule="evenodd" d="M47.6933 35.3356C38.0304 35.3356 30.1971 27.7326 30.1971 18.3539C30.1971 8.97525 38.0304 1.37231 47.6933 1.37231C57.3562 1.37231 65.1895 8.97525 65.1895 18.3539C65.1895 27.7326 57.3562 35.3356 47.6933 35.3356ZM47.8648 33.9633C53.8331 33.9633 58.6713 27.0515 58.6713 18.5255C58.6713 9.99938 53.8331 3.08763 47.8648 3.08763C41.8966 3.08763 37.0583 9.99938 37.0583 18.5255C37.0583 27.0515 41.8966 33.9633 47.8648 33.9633Z" fill="black"/>
<path fill-rule="evenodd" clip-rule="evenodd" d="M27.8707 2.28833V3.15597C29.2893 2.9529 30.4024 3.35584 31.21 4.36479C32.0176 5.37374 32.2152 6.60833 31.8029 8.06856C32.752 6.66476 33.6629 5.59495 34.5358 4.85915C35.4087 4.12335 36.4403 3.47883 37.6307 2.92557V2.28833H27.8707Z" fill="black"/>
</svg>
